<svg width="300" height="200" viewBox="0 0 30 20" fill="none" xmlns="http://www.w3.org/2000/svg">
<g clip-path="url(#clip0_2_2)">
<path d="M0.355469 2.30469C3.01172 2.30469 5.49023 2.98828 7.79102 4.35547C9.5293 5.45703 10.3984 6.63672 10.3984 7.89453C10.3984 9.12891 9.73047 10.0234 8.39453 10.5781C7.61719 10.8633 6.76562 11.0059 5.83984 11.0059C5.33203 11.0059 4.69141 10.9219 3.91797 10.7539C3.86328 11.3789 3.72852 11.6914 3.51367 11.6914H3.41406C3.28516 11.6914 3.18359 11.5215 3.10938 11.1816C3.07812 10.9238 3.04492 10.6895 3.00977 10.4785C1.28711 9.83789 0.425781 9.08594 0.425781 8.22266C0.425781 7.71094 0.814453 7.27344 1.5918 6.91016C2.00586 6.75781 2.5293 6.63867 3.16211 6.55273C3.2793 5.37305 3.41406 4.7832 3.56641 4.7832H3.58984C3.73438 4.7832 3.86133 5.36523 3.9707 6.5293H4.24609C5.74609 6.5293 6.76758 6.79102 7.31055 7.31445C7.3418 7.34961 7.35742 7.40039 7.35742 7.4668C7.35742 7.77148 7.12305 8.00781 6.6543 8.17578C6.55273 8.21094 6.46094 8.22266 6.37891 8.21094C6.26562 8.1875 6.20508 8.13672 6.19727 8.05859C6.19336 7.97656 6.27734 7.89258 6.44922 7.80664C6.62109 7.7168 6.67969 7.66211 6.625 7.64258C6.15234 7.52539 5.39453 7.4668 4.35156 7.4668H3.99414C3.97852 8.55664 3.9707 9.43359 3.9707 10.0977C4.36914 10.1992 4.94141 10.2676 5.6875 10.3027C7.47656 10.2324 8.61523 9.70312 9.10352 8.71484C9.22461 8.46875 9.28516 8.1875 9.28516 7.87109C9.28516 6.73047 8.32227 5.58398 6.39648 4.43164C4.39258 3.34961 2.1582 2.80859 -0.306641 2.80859C-0.626953 2.80859 -0.787109 2.84375 -0.787109 2.91406C-0.787109 2.94531 -0.720703 2.98828 -0.587891 3.04297C-0.455078 3.09375 -0.386719 3.15039 -0.382812 3.21289C-0.382812 3.30273 -0.416016 3.3457 -0.482422 3.3418C-1.00586 3.25586 -1.26758 3.07031 -1.26758 2.78516C-1.26758 2.50781 -0.726562 2.34766 0.355469 2.30469ZM0.882812 8.26953C0.882812 8.78516 1.59961 9.30273 3.0332 9.82227C3.0332 9.1582 3.05078 8.38086 3.08594 7.49023C1.61719 7.59961 0.882812 7.85938 0.882812 8.26953ZM12.666 3.20703C13.2324 3.20703 13.5645 3.35156 13.6621 3.64062C14.2598 3.64062 14.5586 3.86719 14.5586 4.32031C14.5586 4.76562 14.1699 5.21094 13.3926 5.65625C12.9707 5.86719 12.5195 5.97266 12.0391 5.97266C11.7773 5.97266 11.4785 5.92383 11.1426 5.82617C10.9785 6.06836 10.832 6.18945 10.7031 6.18945C10.6602 6.17773 10.6367 6.13672 10.6328 6.06641C10.6328 5.94922 10.6816 5.77148 10.7793 5.5332C10.584 5.36914 10.4863 5.13477 10.4863 4.83008C10.4863 4.20898 10.9316 3.70898 11.8223 3.33008C12.0684 3.24805 12.3496 3.20703 12.666 3.20703ZM11.1895 4.73633C11.1699 4.83789 11.1777 4.91016 11.2129 4.95312C11.8262 4.35547 12.3828 3.99609 12.8828 3.875C11.9102 3.80469 11.3457 4.0918 11.1895 4.73633ZM11.623 5.38672C11.6934 5.4375 11.8965 5.47852 12.2324 5.50977C12.9316 5.50977 13.5137 5.21094 13.9785 4.61328C14.0254 4.54297 14.0488 4.45312 14.0488 4.34375C14.0488 4.21484 13.9844 4.15039 13.8555 4.15039C13.3633 4.15039 12.6445 4.53125 11.6992 5.29297L11.623 5.38672ZM11.6758 6.76953C11.9102 6.76953 12.0391 7.17188 12.0625 7.97656C12.0625 9.98438 11.8926 10.9883 11.5527 10.9883C11.2988 10.9883 11.1543 10.5039 11.1191 9.53516C11.1191 8.57422 11.2637 7.68555 11.5527 6.86914C11.5801 6.82227 11.6211 6.78906 11.6758 6.76953ZM15.4023 6.875C16.4023 6.89844 16.9023 7 16.9023 7.17969C16.9062 7.41797 16.4609 7.55078 15.5664 7.57812C14.3008 7.57812 13.6602 7.6875 13.6445 7.90625C13.6445 8.01953 14.3242 8.21484 15.6836 8.49219C16.543 8.67969 16.9727 9.02344 16.9727 9.52344C16.9727 10.0938 16.4414 10.4922 15.3789 10.7188C15.2148 10.75 15.0352 10.7656 14.8398 10.7656C13.8711 10.7656 13.1914 10.5234 12.8008 10.0391C12.7539 9.94141 12.7305 9.85547 12.7305 9.78125C12.7305 9.46094 13.1875 9.27344 14.1016 9.21875C14.8906 9.25391 15.2852 9.38672 15.2852 9.61719C15.2852 9.73438 15.0508 9.80469 14.582 9.82812C13.8789 9.8125 13.4922 9.80859 13.4219 9.81641C13.3516 9.82422 13.3164 9.84375 13.3164 9.875C13.3711 10.043 13.8242 10.1445 14.6758 10.1797C15.6914 10.1641 16.1992 9.95703 16.1992 9.55859C16.1992 9.25 15.4492 8.95703 13.9492 8.67969C13.5352 8.58984 13.252 8.47461 13.0996 8.33398C12.9512 8.18945 12.875 8.03906 12.8711 7.88281C12.8711 7.51953 13.2656 7.23047 14.0547 7.01562C14.4648 6.92188 14.9141 6.875 15.4023 6.875ZM19.8613 6.46484C19.8457 6.42578 19.8633 6.40625 19.9141 6.40625C20.1836 6.40625 20.4336 6.82031 20.6641 7.64844C20.7109 7.88672 20.7344 8.17188 20.7344 8.50391C20.7344 10.1367 20.5117 10.9531 20.0664 10.9531C19.8086 10.9531 19.3203 10.3906 18.6016 9.26562C18.2891 8.80469 18.0938 8.55469 18.0156 8.51562C17.918 9.875 17.8496 10.6289 17.8105 10.7773C17.7949 10.8203 17.7617 10.8398 17.7109 10.8359C17.3828 10.6875 17.2188 10.4336 17.2188 10.0742C17.2188 8.72656 17.4062 7.79297 17.7812 7.27344C17.8281 7.21875 17.8828 7.21094 17.9453 7.25C18.2461 7.5 18.5742 7.92969 18.9297 8.53906C19.2695 9.07422 19.582 9.49609 19.8672 9.80469C20.0195 9.80469 20.0977 9.35156 20.1016 8.44531C20.1016 7.58594 20.0215 6.92578 19.8613 6.46484ZM23.2246 6.875C23.7754 6.86328 24.1445 6.96094 24.332 7.16797C24.3945 7.26953 24.3965 7.38477 24.3379 7.51367C24.2012 7.61523 23.8887 7.66602 23.4004 7.66602H22.5566C22.459 7.81055 22.3496 8.20898 22.2285 8.86133H22.252C22.8809 8.81055 23.2207 8.78516 23.2715 8.78516C23.5449 8.79688 23.6816 8.88867 23.6816 9.06055C23.5645 9.31445 23.3203 9.46094 22.9492 9.5C22.6523 9.52734 22.3691 9.54492 22.0996 9.55273L22.0762 10.1152C22.0996 10.3848 22.2188 10.5195 22.4336 10.5195C23.3086 10.4766 23.8438 10.4355 24.0391 10.3965C24.125 10.3926 24.168 10.418 24.168 10.4727C24.168 10.7812 23.6484 11.0605 22.6094 11.3105C22.4531 11.3457 22.3008 11.3633 22.1523 11.3633C21.5742 11.3633 21.2852 11.0742 21.2852 10.4961C21.2852 10.2656 21.3281 9.91797 21.4141 9.45312C21.1406 9.375 21.0039 9.27539 21.0039 9.1543C21.0039 9.06836 21.1738 8.99805 21.5137 8.94336C21.6152 8.43164 21.7266 7.99805 21.8477 7.64258H21.8184C21.4277 7.60742 21.2324 7.51367 21.2324 7.36133C21.2559 7.11523 21.9199 6.95312 23.2246 6.875ZM26.1016 6.40625C26.1797 6.41016 26.207 6.45703 26.1836 6.54688C26.1641 6.62109 26.0977 6.7793 25.9844 7.02148C25.875 7.26367 25.7734 7.53125 25.6797 7.82422C25.4766 8.46875 25.375 9.00195 25.375 9.42383C25.3906 9.79883 25.459 9.98633 25.5801 9.98633C25.8379 9.38086 26.2441 8.69531 26.7988 7.92969C27.3965 7.06641 27.8789 6.63477 28.2461 6.63477C28.6406 6.63477 28.834 6.9668 28.8262 7.63086C28.8262 8.50586 28.4629 9.40039 27.7363 10.3145C27.2871 10.7871 26.8164 11.0234 26.3242 11.0234C26.1953 11.0234 26.082 11 25.9844 10.9531C25.7656 11.582 25.4707 12.5957 25.0996 13.9941C25.0684 14.0996 25.0078 14.1328 24.918 14.0938C24.6484 13.9648 24.5137 13.7188 24.5137 13.3555C24.5137 12.7383 24.7598 11.8516 25.252 10.6953C24.9121 10.4023 24.7422 9.97852 24.7422 9.42383C24.7422 8.62305 25.1484 7.63477 25.9609 6.45898C25.9922 6.42383 26.0391 6.40625 26.1016 6.40625ZM26.3125 10.3379C26.8789 10.3379 27.4043 9.90625 27.8887 9.04297C28.1582 8.48828 28.293 8.0332 28.293 7.67773C28.293 7.50586 28.2266 7.41992 28.0938 7.41992C27.7539 7.41992 27.1465 8.34375 26.2715 10.1914C26.2363 10.2812 26.25 10.3301 26.3125 10.3379Z" fill="black"/>
<path d="M1.58097 16.992L2.22097 13.44L0.780969 13.336L1.00497 11.992L5.06097 12.288L4.91697 13.608L3.58097 13.536L3.24497 17.144L1.58097 16.992ZM5.52009 14.552C5.80009 14.576 6.09609 14.56 6.36009 14.464C7.06409 14.208 6.89609 13.512 6.36809 13.512C6.00809 13.512 5.71209 13.608 5.44809 13.688L5.52009 14.552ZM4.19209 13.728L5.06409 13.776L5.20009 12.488C5.62409 12.36 6.05609 12.296 6.48809 12.288C8.36809 12.248 8.73609 14.544 7.26409 15.136L8.46409 16.408L7.31209 17.296L6.06409 15.56L5.58409 15.64L5.67209 17.04L4.32009 17.16L4.19209 13.728ZM7.72322 15.056C8.51522 14.448 8.51522 13.256 7.81922 12.6L7.82722 12.336L9.31522 12.392L9.23522 17.016L7.98722 16.976L8.70722 16.424L7.71522 15.376L7.72322 15.056ZM10.4048 14.608C11.0288 14.88 11.6848 14.744 11.7008 14.152C11.7408 13.536 10.9808 13.416 10.4448 13.688L10.4048 14.608ZM9.46878 12.536C9.94878 12.368 10.5728 12.216 11.2848 12.264C12.4688 12.344 13.1728 13.272 13.0528 14.32C12.8928 15.696 11.5488 16.312 10.3648 15.832L10.3328 17.136L9.39678 17.056L9.46878 12.536ZM17.5888 16.992L18.2288 13.44L16.7888 13.336L17.0128 11.992L21.0688 12.288L20.9248 13.608L19.5888 13.536L19.2528 17.144L17.5888 16.992ZM20.4559 16.968L20.5759 13.752L21.0719 13.776L21.2239 12.36L22.1199 12.392L22.0399 17.016L20.4559 16.968ZM23.2095 14.608C23.8335 14.88 24.4895 14.744 24.5055 14.152C24.5455 13.536 23.7855 13.416 23.2495 13.688L23.2095 14.608ZM22.2735 12.536C22.7535 12.368 23.3775 12.216 24.0895 12.264C25.2735 12.344 25.9775 13.272 25.8575 14.32C25.6975 15.696 24.3535 16.312 23.1695 15.832L23.1375 17.136L22.2015 17.056L22.2735 12.536ZM26.5486 17.288C26.1006 17.288 25.3326 17.128 24.8606 16.728L25.4206 15.592C25.4286 15.576 25.4446 15.56 25.4606 15.552C25.6846 15.76 26.0926 15.976 26.5326 15.96C27.0366 15.944 27.3166 15.256 26.1966 15.112C26.0606 15.096 25.9406 15.064 25.8206 15.032C25.9246 14.824 25.9886 14.592 26.0206 14.336C26.1006 13.624 25.8286 12.96 25.2846 12.536C25.5566 12.296 25.9246 12.128 26.3886 12.104C27.1406 12.064 27.6606 12.24 27.9246 12.416L27.3646 13.592C27.1886 13.48 26.9486 13.384 26.6446 13.376C25.9806 13.352 25.8846 14.064 26.7406 14.152C29.2046 14.408 28.6046 17.288 26.5486 17.288Z" fill="black"/>
<path d="M14.5307 15.451C14.5012 15.774 14.1843 16.2621 13.9485 16.1258C13.6317 15.9678 14.1991 15.049 14.4422 15.1854C14.4864 15.2069 14.5012 15.2284 14.5159 15.2571L14.2875 15.5012L14.5307 15.451ZM13.7053 17.2025C13.6611 17.3892 13.8159 17.5974 13.9633 17.6476C14.1991 17.7266 14.457 17.6835 14.7149 17.5184C14.8401 17.4394 14.9654 17.3102 15.0612 17.181C14.7959 17.0661 14.3833 17.1738 14.1327 17.3964C14.1327 17.3389 14.1327 17.2743 14.118 17.2169L13.7053 17.2025ZM16.3729 16.7431C16.4023 15.853 15.5918 15.9032 15.1275 16.097C15.3265 15.9176 15.6065 15.5156 15.4223 15.092C15.2602 14.6757 14.6117 14.5465 14.0443 15.1566C14.0738 15.0418 14.1106 14.8623 14.0885 14.7977C13.6464 14.9915 13.2853 15.3648 13.219 15.695L13.3074 15.7525C13.3664 15.451 13.6832 15.092 13.8011 15.1854C13.8159 15.2069 13.8306 15.2284 13.8306 15.2428L13.6169 15.4869L13.8306 15.4366C13.8011 15.573 13.6832 15.774 13.5064 15.9463C13.5359 15.9822 13.5653 16.0181 13.5801 16.0468C13.6095 16.097 13.5653 16.1401 13.5211 16.097C13.4327 15.9678 13.1822 15.6591 12.8358 15.695C12.8727 15.853 12.8727 16.0181 12.7842 16.097C12.7253 16.176 12.5853 16.1975 12.4526 16.1401C12.4748 16.4201 12.6516 16.6785 12.9832 16.8723C13.3074 17.0661 13.7201 17.1595 14.1033 17.1308C14.538 17.0661 14.9359 16.9369 15.3928 16.4201L15.4002 16.5062C15.3854 16.9082 15.1128 17.3533 14.7591 17.5902C14.4791 17.7625 14.2433 17.8199 13.9338 17.7122C13.6685 17.6333 13.5801 17.3461 13.6169 17.1954L13.5211 17.1595C13.4843 17.4682 13.6022 17.7122 13.8601 17.8271C14.317 18.0568 14.8549 17.7984 15.2086 17.4394C15.8865 17.4035 16.2181 17.0877 16.3729 16.7431ZM17.9056 15.2284C18.134 15.8386 17.935 16.5134 17.4487 16.7288C17.1539 16.858 16.8002 16.7718 16.5423 16.5349C16.3065 17.2887 15.8055 17.4753 15.2602 17.5184C14.8107 17.9204 14.2801 18.1358 13.8306 17.906C13.5653 17.7984 13.3737 17.5184 13.4327 17.1451C13.2485 17.0949 13.0864 17.0374 12.939 16.9513C12.5705 16.7288 12.3716 16.4201 12.3716 16.1114C12.2905 16.0683 12.2021 16.0181 12.1432 15.9319C11.9589 15.7238 11.9589 15.4869 12.1063 15.3361C12.3421 15.1423 12.6 15.2571 12.74 15.4869C12.7695 15.5299 12.7842 15.573 12.799 15.6161C12.9021 15.5945 13.0348 15.6161 13.1379 15.6591C13.2337 15.2715 13.7053 14.8408 14.2285 14.6613C14.118 14.4962 14.0296 14.3167 14.0148 14.1086C13.978 13.5415 14.4422 13.0533 15.0612 13.0031C15.6581 12.96 16.1886 13.3763 16.2181 13.9435C16.2402 14.3024 16.056 14.6326 15.776 14.8121C15.8865 14.8695 16.0486 15.049 16.1223 15.1279C16.1886 14.8551 16.3729 14.6039 16.6013 14.4962C17.0876 14.288 17.6477 14.6039 17.9056 15.2284Z" fill="black"/>
</g>
<defs>
<clipPath id="clip0_2_2">
</clipPath>
</defs>
</svg>
